<?xml version="1.0" encoding="utf-8"?>
<!-- Generator: Adobe Illustrator 21.1.0, SVG Export Plug-In . SVG Version: 6.00 Build 0)  -->
<svg version="1.1" id="Layer_1" xmlns="http://www.w3.org/2000/svg" xmlns:xlink="http://www.w3.org/1999/xlink" x="0px" y="0px"
	 viewBox="0 0 154 41" style="enable-background:new 0 0 154 41;" xml:space="preserve">
<style type="text/css">
	.st0{fill:#FFFFFF;}
</style>
<path class="st0" d="M103,26h9V14h-9c-1.6,0-3,1.5-3,3v6C100,24.5,101.4,26,103,26z M139,26h9V14h-9c-1.6,0-3,1.5-3,3v6
	C136,24.5,137.4,26,139,26z M118,9.5v21c0,0.7-0.8,1.5-1.5,1.5l-3,0c-0.7,0-1.5-0.9-1.5-1.5v-1l-1.4,1.6c-0.4,0.6-1.4,0.9-2.1,0.9
	H103c-4.8,0-9-4.2-9-9v-6c0-4.8,4.2-9,9-9h13.5C117.2,8,118,8.8,118,9.5z M154,9.5v21c0,0.7-0.8,1.5-1.5,1.5l-3,0
	c-0.7,0-1.5-0.9-1.5-1.5v-1l-1.4,1.6c-0.4,0.6-1.4,0.9-2.1,0.9H139c-4.8,0-9-4.2-9-9v-6c0-4.8,4.2-9,9-9h13.5
	C153.2,8,154,8.8,154,9.5z M54,14h-9c-1.6,0-3,1.5-3,3v6c0,1.5,1.4,3,3,3h9V14z M60,9.5V32v0.5c0,4.8-4.2,8.5-9,8.5h-4.6
	c-0.7,0-1.3-0.3-1.8-0.9L42,36.6c-0.4-0.6-0.2-1.6,0.5-1.6H51c1.6,0,3-1,3-2.5V32h-9c-4.8,0-9-4.2-9-9v-6c0-4.8,4.2-9,9-9h5.5
	c0.7,0,1.4,0.6,1.9,1l1.6,1.5v-1C54,8.8,54.8,8,55.5,8h3C59.2,8,60,8.8,60,9.5z M6,23c0,1.5,1.4,3,3,3h9V14H9c-1.6,0-3,1.5-3,3V23z
	 M22.5,0C23.2,0,24,0.8,24,1.5v29c0,0.7-0.8,1.5-1.5,1.5h-3c-0.7,0-1.5-0.8-1.5-1.5v-1l-1.6,1.7C16,31.7,15.2,32,14.5,32H9
	c-4.8,0-9-4.2-9-9v-6c0-4.8,4.2-9,9-9h9V1.5C18,0.8,18.8,0,19.5,0H22.5z M84.5,20l8.4-10.6C93.3,8.9,92.9,8,92.2,8h-4.8
	c-0.4,0-0.7,0.2-0.9,0.4L78,19V1.5C78,0.8,77.2,0,76.5,0h-3C72.8,0,72,0.8,72,1.5v29c0,0.7,0.8,1.5,1.5,1.5h3c0.7,0,1.5-0.8,1.5-1.5
	V21l8.5,10.6c0.2,0.3,0.6,0.4,0.9,0.4h4.8c0.7,0,1.2-0.9,0.7-1.4L84.5,20z M64.5,0C63.8,0,63,0.8,63,1.5v3C63,5.2,63.8,6,64.5,6h3
	C68.2,6,69,5.2,69,4.5v-3C69,0.8,68.2,0,67.5,0H64.5z M64.5,8C63.8,8,63,8.8,63,9.5v21c0,0.7,1.1,1.5,1.7,1.5l2.8,0
	c0.7,0,1.5-0.8,1.5-1.5v-21C69,8.8,68.2,8,67.5,8H64.5z M28.5,0C27.8,0,27,0.8,27,1.5v3C27,5.2,27.8,6,28.5,6h3
	C32.2,6,33,5.2,33,4.5v-3C33,0.8,32.2,0,31.5,0H28.5z M28.5,8C27.8,8,27,8.8,27,9.5v21c0,0.7,0.8,1.5,1.5,1.5h3
	c0.7,0,1.5-0.8,1.5-1.5v-21C33,8.8,32.2,8,31.5,8H28.5z M127,1.5v29c0,0.7-0.8,1.5-1.5,1.5h-3c-0.7,0-1.5-0.8-1.5-1.5v-29
	c0-0.7,0.8-1.5,1.5-1.5h3C126.2,0,127,0.8,127,1.5z"/>
</svg>
