<svg xmlns="http://www.w3.org/2000/svg" xmlns:xlink="http://www.w3.org/1999/xlink" viewBox="0 0 194.84 243.76"><defs><style>.cls-1,.cls-3,.cls-4{fill:none;stroke-linecap:round;stroke-miterlimit:10;stroke-width:9px;}.cls-1{stroke:url(#New_Gradient_Swatch);}.cls-2{fill:#eb3654;}.cls-3{stroke:url(#New_Gradient_Swatch-2);}.cls-4{stroke:url(#New_Gradient_Swatch-3);}.cls-5{fill:url(#New_Gradient_Swatch-4);}.cls-6{fill:url(#New_Gradient_Swatch-5);}</style><linearGradient id="New_Gradient_Swatch" x1="107.86" y1="85.57" x2="191.2" y2="85.57" gradientTransform="matrix(1, 0, 0, -1, 0, 254.84)" gradientUnits="userSpaceOnUse"><stop offset="0" stop-color="#eb3654"/><stop offset="1" stop-color="#eb3654" stop-opacity="0"/></linearGradient><linearGradient id="New_Gradient_Swatch-2" x1="86.98" y1="85.57" x2="3.64" y2="85.57" xlink:href="#New_Gradient_Swatch"/><linearGradient id="New_Gradient_Swatch-3" x1="97.35" y1="93.19" x2="97.35" y2="194.41" xlink:href="#New_Gradient_Swatch"/><linearGradient id="New_Gradient_Swatch-4" x1="48.32" y1="175.32" x2="48.32" y2="252.08" xlink:href="#New_Gradient_Swatch"/><linearGradient id="New_Gradient_Swatch-5" x1="147.3" y1="175.64" x2="147.3" y2="251.91" xlink:href="#New_Gradient_Swatch"/></defs><title>Asset 1</title><g id="Layer_2" data-name="Layer 2"><g id="Layer_1-2" data-name="Layer 1"><path class="cls-1" d="M158.39,99.27s-5,20.46-32.19,20.85c0,0,5.9,54.49-10.86,113.73,0,0,34.52-21.33,51.19-67.09v-41.5s11.25.39,20.17-14"/><circle class="cls-2" cx="189.41" cy="108.26" r="5.43"/><path class="cls-3" d="M36.45,99.27s5,20.46,32.19,20.85c0,0-5.9,54.49,10.86,113.73,0,0-34.52-21.33-51.19-67.09v-41.5s-11.25.39-20.17-14"/><circle class="cls-2" cx="5.43" cy="108.26" r="5.43"/><path class="cls-4" d="M14.87,64.93S39,97.74,88.66,96.08c0,0,7.4,9.19-4.47,37.79,0,0,.52,16.21,13.16,22.72,12.63-6.51,13.16-22.72,13.16-22.72C98.64,105.27,106,96.08,106,96.08c49.66,1.66,73.79-31.15,73.79-31.15"/><circle class="cls-2" cx="87.97" cy="5.43" r="5.43"/><circle class="cls-2" cx="87.97" cy="39.62" r="5.43"/><circle class="cls-2" cx="108.27" cy="39.62" r="5.43"/><circle class="cls-2" cx="108.27" cy="74.53" r="5.43"/><path class="cls-5" d="M91,54.59V79.52s-31-.68-57.19-14.47S5.35,38.08,5.7,32.12s5.62-18,31.57-23.74S91,2.76,91,2.76V7.7s-25.28.17-44.68,4.17-35.57,11.57-34,22.21S27.4,53.74,39.31,59.27,64.67,68.63,83,70.93V61.48S60.5,58.25,44.08,51.18,27.57,35.35,29.19,32.12s5.45-7,21.79-10S91,19,91,19V36.46H85.87V24.12s-21.7.09-34.21,3S30.81,32.89,35.92,38.42s15.4,8.77,30.81,12.34S91,54.59,91,54.59Z"/><path class="cls-6" d="M105.57,2.93A333,333,0,0,1,143.4,6c18.13,2.72,31.83,6.38,40.6,14.81s5.7,21.7-6.3,32.09-28.17,17.53-42.3,20.94-29.83,5.36-29.83,5.36V70.77a150,150,0,0,0,42.85-8.59c21.45-8,33.45-19.83,34.55-27.23s-2.3-13.28-18.47-19.23S113.27,8,110.37,8.23V19.12c13.87,0,34.81,1.36,46.21,5.62s9.62,11.15,9.62,11.15c-3.66,20.6-60.64,25.87-60.64,25.87V42.33h5.06V54.59s29.36-3.91,42-11.32,8.17-10.64,4.77-12.68-20.26-6.9-51.87-6.3V2.93Z"/></g></g></svg>