<svg xmlns="http://www.w3.org/2000/svg" viewBox="0 0 472.69 158.34"><defs><style>.cls-1{fill:#fff;}</style></defs><title>ssc-logo</title><g id="Layer_2" data-name="Layer 2"><g id="Layer_1-2" data-name="Layer 1"><polygon class="cls-1" points="15.6 158.29 1.06 158.29 1.06 154.18 13.44 154.18 13.44 151.78 2.89 151.78 1.06 149.9 1.06 143.04 2.89 141.15 17.41 141.15 17.41 145.26 5.05 145.26 5.05 147.66 15.6 147.66 17.41 149.54 17.41 156.39 15.6 158.29"/><polygon class="cls-1" points="29.88 145.24 29.88 158.27 25.91 158.27 25.91 145.24 19.55 145.26 19.55 141.15 36.06 141.13 36.06 145.24 29.88 145.24"/><polygon class="cls-1" points="52.88 158.29 40.03 158.29 38.2 156.39 38.2 141.15 42.2 141.15 42.2 154.18 50.72 154.18 50.72 141.15 54.69 141.15 54.69 156.39 52.88 158.29"/><path class="cls-1" d="M71.44,158.29H56.83V141.15H71.44l1.81,1.9v13.35Zm-10.62-4.12h8.45v-8.92H60.83Z"/><polygon class="cls-1" points="77.22 158.29 75.39 156.39 75.39 143.04 77.22 141.15 91.83 141.15 91.83 145.26 79.39 145.26 79.39 147.66 91.83 147.66 91.83 151.78 79.39 151.78 79.39 154.18 91.83 154.18 91.83 158.29 77.22 158.29"/><polygon class="cls-1" points="106.51 158.34 106.51 145.26 97.97 145.26 97.97 158.29 93.98 158.29 93.98 141.15 108.67 141.15 110.48 143.04 110.48 158.34 106.51 158.34"/><polygon class="cls-1" points="122.95 145.24 122.95 158.27 118.98 158.27 118.98 145.24 112.63 145.26 112.63 141.15 129.13 141.13 129.13 145.24 122.95 145.24"/><rect class="cls-1" x="152.1" y="139.1" width="3.31" height="4.57"/><polygon class="cls-1" points="147.05 158.29 132.51 158.29 132.51 154.18 144.89 154.18 144.89 151.78 134.34 151.78 132.51 149.9 132.51 143.04 134.34 141.15 148.86 141.15 148.86 145.26 136.5 145.26 136.5 147.66 147.05 147.66 148.86 149.54 148.86 156.39 147.05 158.29"/><polygon class="cls-1" points="179.98 158.29 164.65 158.29 164.65 154.18 177.7 154.18 177.7 151.78 166.59 151.78 164.65 149.9 164.65 143.04 166.59 141.15 181.89 141.15 181.89 145.26 168.86 145.26 168.86 147.66 179.98 147.66 181.89 149.54 181.89 156.39 179.98 158.29"/><polygon class="cls-1" points="186.08 158.29 184.15 156.39 184.15 143.04 186.08 141.15 201.45 141.13 201.45 145.26 188.36 145.26 188.36 154.18 201.45 154.18 201.45 158.29 186.08 158.29"/><rect class="cls-1" x="203.52" y="141.15" width="3.49" height="17.14"/><polygon class="cls-1" points="211.15 158.29 209.22 156.39 209.22 143.04 211.15 141.15 226.55 141.15 226.55 145.26 213.43 145.26 213.43 147.66 226.55 147.66 226.55 151.78 213.43 151.78 213.43 154.18 226.55 154.18 226.55 158.29 211.15 158.29"/><polygon class="cls-1" points="242.02 158.34 242.02 145.26 233.02 145.26 233.02 158.29 228.81 158.29 228.81 141.15 244.3 141.15 246.21 143.04 246.21 158.34 242.02 158.34"/><polygon class="cls-1" points="259.35 145.24 259.35 158.27 255.16 158.27 255.16 145.24 248.46 145.26 248.46 141.15 265.86 141.13 265.86 145.24 259.35 145.24"/><rect class="cls-1" x="267.93" y="141.15" width="3.49" height="17.14"/><polygon class="cls-1" points="277.84 151.78 277.84 158.29 273.63 158.29 273.63 143.04 275.56 141.15 290.96 141.15 290.96 145.26 277.84 145.26 277.84 147.66 290.96 147.66 290.96 151.78 277.84 151.78"/><rect class="cls-1" x="293.03" y="141.15" width="3.49" height="17.14"/><polygon class="cls-1" points="300.66 158.29 298.73 156.39 298.73 143.04 300.66 141.15 316.04 141.13 316.04 145.26 302.94 145.26 302.94 154.18 316.04 154.18 316.04 158.29 300.66 158.29"/><polygon class="cls-1" points="330.47 158.29 328.4 156.39 328.4 143.04 330.47 141.15 346.91 141.13 346.91 145.26 332.9 145.26 332.9 154.18 346.91 154.18 346.91 158.29 330.47 158.29"/><polygon class="cls-1" points="363.45 158.29 363.45 151.78 353.82 151.78 353.82 158.29 349.32 158.29 349.32 141.15 353.82 141.15 353.82 147.66 363.45 147.66 363.45 141.15 367.93 141.15 367.93 158.29 363.45 158.29"/><path class="cls-1" d="M384.37,158.29v-6.51h-9.53v6.51h-4.5V143l2.07-1.9h14.4l2,1.9v15.25Zm-9.53-10.63h9.52v-2.4h-9.52Z"/><path class="cls-1" d="M407.75,151.78h-12v6.51h-4.5V141.15h16.49l2,1.9v6.86Zm-12-4.12h9.55v-2.4h-9.55Z"/><polygon class="cls-1" points="423.84 145.24 423.84 158.27 419.36 158.27 419.36 145.24 412.19 145.26 412.19 141.15 430.8 141.13 430.8 145.24 423.84 145.24"/><polygon class="cls-1" points="435.28 158.29 433.21 156.39 433.21 143.04 435.28 141.15 451.75 141.15 451.75 145.26 437.72 145.26 437.72 147.66 451.75 147.66 451.75 151.78 437.72 151.78 437.72 154.18 451.75 154.18 451.75 158.29 435.28 158.29"/><path class="cls-1" d="M468.21,158.29v-6.51h-9.55v6.51h-4.5V141.15h16.49l2,1.9v5.21l-1.57,1.46,1.57,1.46v7.11Zm-9.55-10.63h9.55v-2.4h-9.55Z"/><path class="cls-1" d="M22.8,5.45A5.39,5.39,0,1,1,12,5.45a5.39,5.39,0,1,1,10.79,0"/><path class="cls-1" d="M34.82,5.45A5.39,5.39,0,1,1,24,5.45a5.39,5.39,0,1,1,10.79,0"/><path class="cls-1" d="M46.83,5.45A5.39,5.39,0,1,1,36,5.45a5.39,5.39,0,1,1,10.79,0"/><path class="cls-1" d="M58.84,5.45a5.39,5.39,0,1,1-10.79,0,5.39,5.39,0,1,1,10.79,0"/><path class="cls-1" d="M70.86,5.45a5.39,5.39,0,1,1-10.79,0,5.39,5.39,0,1,1,10.79,0"/><path class="cls-1" d="M82.87,5.45a5.39,5.39,0,1,1-10.79,0,5.39,5.39,0,1,1,10.79,0"/><path class="cls-1" d="M94.89,5.45a5.39,5.39,0,1,1-10.79,0,5.39,5.39,0,1,1,10.79,0"/><path class="cls-1" d="M106.9,5.45a5.39,5.39,0,1,1-10.79,0,5.39,5.39,0,1,1,10.79,0"/><path class="cls-1" d="M118.91,5.45a5.39,5.39,0,1,1-10.79,0,5.39,5.39,0,1,1,10.79,0"/><path class="cls-1" d="M130.93,5.45a5.39,5.39,0,1,1-10.79,0,5.39,5.39,0,1,1,10.79,0"/><path class="cls-1" d="M142.94,5.45a5.39,5.39,0,1,1-10.79,0,5.39,5.39,0,1,1,10.79,0"/><path class="cls-1" d="M22.8,17.6a5.39,5.39,0,1,1-5.39-5.45A5.42,5.42,0,0,1,22.8,17.6"/><path class="cls-1" d="M34.82,17.6a5.39,5.39,0,1,1-5.39-5.45,5.42,5.42,0,0,1,5.39,5.45"/><path class="cls-1" d="M46.83,17.6a5.39,5.39,0,1,1-5.39-5.45,5.42,5.42,0,0,1,5.39,5.45"/><path class="cls-1" d="M58.84,17.6a5.39,5.39,0,1,1-5.4-5.45,5.43,5.43,0,0,1,5.4,5.45"/><path class="cls-1" d="M70.86,17.6a5.39,5.39,0,1,1-5.4-5.45,5.42,5.42,0,0,1,5.4,5.45"/><path class="cls-1" d="M82.87,17.6a5.39,5.39,0,1,1-5.4-5.45,5.42,5.42,0,0,1,5.4,5.45"/><path class="cls-1" d="M94.89,17.6a5.39,5.39,0,1,1-5.39-5.45,5.42,5.42,0,0,1,5.39,5.45"/><path class="cls-1" d="M106.9,17.6a5.39,5.39,0,1,1-5.39-5.45,5.42,5.42,0,0,1,5.39,5.45"/><path class="cls-1" d="M118.91,17.6a5.39,5.39,0,1,1-5.39-5.45,5.42,5.42,0,0,1,5.39,5.45"/><path class="cls-1" d="M130.93,17.6a5.39,5.39,0,1,1-5.39-5.45,5.42,5.42,0,0,1,5.39,5.45"/><path class="cls-1" d="M142.94,17.6a5.39,5.39,0,1,1-5.4-5.45,5.43,5.43,0,0,1,5.4,5.45"/><path class="cls-1" d="M22.8,29.74a5.39,5.39,0,1,1-5.39-5.45,5.42,5.42,0,0,1,5.39,5.45"/><path class="cls-1" d="M34.82,29.74a5.39,5.39,0,1,1-5.39-5.45,5.42,5.42,0,0,1,5.39,5.45"/><path class="cls-1" d="M46.83,29.74a5.39,5.39,0,1,1-5.39-5.45,5.42,5.42,0,0,1,5.39,5.45"/><path class="cls-1" d="M58.84,29.74a5.39,5.39,0,1,1-5.4-5.45,5.43,5.43,0,0,1,5.4,5.45"/><path class="cls-1" d="M70.86,29.74a5.39,5.39,0,1,1-5.4-5.45,5.42,5.42,0,0,1,5.4,5.45"/><path class="cls-1" d="M82.87,29.74a5.39,5.39,0,1,1-5.4-5.45,5.42,5.42,0,0,1,5.4,5.45"/><path class="cls-1" d="M94.89,29.74a5.39,5.39,0,1,1-5.39-5.45,5.42,5.42,0,0,1,5.39,5.45"/><path class="cls-1" d="M106.9,29.74a5.39,5.39,0,1,1-5.39-5.45,5.42,5.42,0,0,1,5.39,5.45"/><path class="cls-1" d="M118.91,29.74a5.39,5.39,0,1,1-5.39-5.45,5.42,5.42,0,0,1,5.39,5.45"/><path class="cls-1" d="M130.93,29.74a5.39,5.39,0,1,1-5.39-5.45,5.42,5.42,0,0,1,5.39,5.45"/><path class="cls-1" d="M142.94,29.74a5.39,5.39,0,1,1-5.4-5.45,5.43,5.43,0,0,1,5.4,5.45"/><path class="cls-1" d="M22.8,41.88a5.39,5.39,0,1,1-5.39-5.45,5.42,5.42,0,0,1,5.39,5.45"/><path class="cls-1" d="M34.82,41.88a5.39,5.39,0,1,1-5.39-5.45,5.42,5.42,0,0,1,5.39,5.45"/><path class="cls-1" d="M46.83,41.88a5.39,5.39,0,1,1-5.39-5.45,5.42,5.42,0,0,1,5.39,5.45"/><path class="cls-1" d="M22.8,54a5.39,5.39,0,1,1-5.39-5.45A5.42,5.42,0,0,1,22.8,54"/><path class="cls-1" d="M34.82,54a5.39,5.39,0,1,1-5.39-5.45A5.42,5.42,0,0,1,34.82,54"/><path class="cls-1" d="M46.83,54a5.39,5.39,0,1,1-5.39-5.45A5.42,5.42,0,0,1,46.83,54"/><path class="cls-1" d="M58.84,54a5.39,5.39,0,1,1-5.4-5.45A5.43,5.43,0,0,1,58.84,54"/><path class="cls-1" d="M70.86,54a5.39,5.39,0,1,1-5.4-5.45A5.42,5.42,0,0,1,70.86,54"/><path class="cls-1" d="M82.87,54a5.39,5.39,0,1,1-5.4-5.45A5.42,5.42,0,0,1,82.87,54"/><path class="cls-1" d="M94.89,54a5.39,5.39,0,1,1-5.39-5.45A5.42,5.42,0,0,1,94.89,54"/><path class="cls-1" d="M106.9,54a5.39,5.39,0,1,1-5.39-5.45A5.42,5.42,0,0,1,106.9,54"/><path class="cls-1" d="M118.91,54a5.39,5.39,0,1,1-5.39-5.45A5.42,5.42,0,0,1,118.91,54"/><path class="cls-1" d="M130.93,54a5.39,5.39,0,1,1-5.39-5.45A5.42,5.42,0,0,1,130.93,54"/><path class="cls-1" d="M22.8,66.17a5.39,5.39,0,1,1-5.39-5.45,5.43,5.43,0,0,1,5.39,5.45"/><path class="cls-1" d="M34.82,66.17a5.39,5.39,0,1,1-5.39-5.45,5.43,5.43,0,0,1,5.39,5.45"/><path class="cls-1" d="M46.83,66.17a5.39,5.39,0,1,1-5.39-5.45,5.43,5.43,0,0,1,5.39,5.45"/><path class="cls-1" d="M58.84,66.17a5.39,5.39,0,1,1-5.4-5.45,5.43,5.43,0,0,1,5.4,5.45"/><path class="cls-1" d="M70.86,66.17a5.39,5.39,0,1,1-5.4-5.45,5.43,5.43,0,0,1,5.4,5.45"/><path class="cls-1" d="M82.87,66.17a5.39,5.39,0,1,1-5.4-5.45,5.43,5.43,0,0,1,5.4,5.45"/><path class="cls-1" d="M94.89,66.17a5.39,5.39,0,1,1-5.39-5.45,5.43,5.43,0,0,1,5.39,5.45"/><path class="cls-1" d="M106.9,66.17a5.39,5.39,0,1,1-5.39-5.45,5.43,5.43,0,0,1,5.39,5.45"/><path class="cls-1" d="M118.91,66.17a5.39,5.39,0,1,1-5.39-5.45,5.43,5.43,0,0,1,5.39,5.45"/><path class="cls-1" d="M130.93,66.17a5.39,5.39,0,1,1-5.39-5.45,5.43,5.43,0,0,1,5.39,5.45"/><path class="cls-1" d="M142.94,66.17a5.39,5.39,0,1,1-5.4-5.45,5.43,5.43,0,0,1,5.4,5.45"/><path class="cls-1" d="M22.8,78.31a5.39,5.39,0,1,1-5.39-5.45,5.43,5.43,0,0,1,5.39,5.45"/><path class="cls-1" d="M34.82,78.31a5.39,5.39,0,1,1-5.39-5.45,5.43,5.43,0,0,1,5.39,5.45"/><path class="cls-1" d="M46.83,78.31a5.39,5.39,0,1,1-5.39-5.45,5.43,5.43,0,0,1,5.39,5.45"/><path class="cls-1" d="M58.84,78.31a5.39,5.39,0,1,1-5.4-5.45,5.43,5.43,0,0,1,5.4,5.45"/><path class="cls-1" d="M70.86,78.31a5.39,5.39,0,1,1-5.4-5.45,5.43,5.43,0,0,1,5.4,5.45"/><path class="cls-1" d="M82.87,78.31a5.39,5.39,0,1,1-5.4-5.45,5.43,5.43,0,0,1,5.4,5.45"/><path class="cls-1" d="M94.89,78.31a5.39,5.39,0,1,1-5.39-5.45,5.43,5.43,0,0,1,5.39,5.45"/><path class="cls-1" d="M106.9,78.31a5.39,5.39,0,1,1-5.39-5.45,5.43,5.43,0,0,1,5.39,5.45"/><path class="cls-1" d="M118.91,78.31a5.39,5.39,0,1,1-5.39-5.45,5.43,5.43,0,0,1,5.39,5.45"/><path class="cls-1" d="M130.93,78.31a5.39,5.39,0,1,1-5.39-5.45,5.43,5.43,0,0,1,5.39,5.45"/><path class="cls-1" d="M142.94,78.31a5.39,5.39,0,1,1-5.4-5.45,5.43,5.43,0,0,1,5.4,5.45"/><path class="cls-1" d="M106.9,90.46A5.39,5.39,0,1,1,101.5,85a5.42,5.42,0,0,1,5.39,5.45"/><path class="cls-1" d="M118.91,90.46A5.39,5.39,0,1,1,113.52,85a5.42,5.42,0,0,1,5.39,5.45"/><path class="cls-1" d="M130.93,90.46A5.39,5.39,0,1,1,125.53,85a5.42,5.42,0,0,1,5.39,5.45"/><path class="cls-1" d="M142.94,90.46a5.39,5.39,0,1,1-5.4-5.45,5.43,5.43,0,0,1,5.4,5.45"/><path class="cls-1" d="M22.8,102.6a5.39,5.39,0,1,1-5.39-5.45,5.42,5.42,0,0,1,5.39,5.45"/><path class="cls-1" d="M34.82,102.6a5.39,5.39,0,1,1-5.39-5.45,5.42,5.42,0,0,1,5.39,5.45"/><path class="cls-1" d="M46.83,102.6a5.39,5.39,0,1,1-5.39-5.45,5.42,5.42,0,0,1,5.39,5.45"/><path class="cls-1" d="M58.84,102.6a5.39,5.39,0,1,1-5.4-5.45,5.43,5.43,0,0,1,5.4,5.45"/><path class="cls-1" d="M70.86,102.6a5.39,5.39,0,1,1-5.4-5.45,5.42,5.42,0,0,1,5.4,5.45"/><path class="cls-1" d="M82.87,102.6a5.39,5.39,0,1,1-5.4-5.45,5.42,5.42,0,0,1,5.4,5.45"/><path class="cls-1" d="M94.89,102.6a5.39,5.39,0,1,1-5.39-5.45,5.42,5.42,0,0,1,5.39,5.45"/><path class="cls-1" d="M106.9,102.6a5.39,5.39,0,1,1-5.39-5.45,5.42,5.42,0,0,1,5.39,5.45"/><path class="cls-1" d="M118.91,102.6a5.39,5.39,0,1,1-5.39-5.45,5.42,5.42,0,0,1,5.39,5.45"/><path class="cls-1" d="M130.93,102.6a5.39,5.39,0,1,1-5.39-5.45,5.42,5.42,0,0,1,5.39,5.45"/><path class="cls-1" d="M142.94,102.6a5.39,5.39,0,1,1-5.4-5.45,5.43,5.43,0,0,1,5.4,5.45"/><path class="cls-1" d="M22.8,114.74a5.39,5.39,0,1,1-5.39-5.45,5.43,5.43,0,0,1,5.39,5.45"/><path class="cls-1" d="M34.82,114.74a5.39,5.39,0,1,1-5.39-5.45,5.43,5.43,0,0,1,5.39,5.45"/><path class="cls-1" d="M46.83,114.74a5.39,5.39,0,1,1-5.39-5.45,5.43,5.43,0,0,1,5.39,5.45"/><path class="cls-1" d="M58.84,114.74a5.39,5.39,0,1,1-5.4-5.45,5.43,5.43,0,0,1,5.4,5.45"/><path class="cls-1" d="M70.86,114.74a5.39,5.39,0,1,1-5.4-5.45,5.43,5.43,0,0,1,5.4,5.45"/><path class="cls-1" d="M82.87,114.74a5.39,5.39,0,1,1-5.4-5.45,5.43,5.43,0,0,1,5.4,5.45"/><path class="cls-1" d="M94.89,114.74a5.39,5.39,0,1,1-5.39-5.45,5.43,5.43,0,0,1,5.39,5.45"/><path class="cls-1" d="M106.9,114.74a5.39,5.39,0,1,1-5.39-5.45,5.43,5.43,0,0,1,5.39,5.45"/><path class="cls-1" d="M118.91,114.74a5.39,5.39,0,1,1-5.39-5.45,5.43,5.43,0,0,1,5.39,5.45"/><path class="cls-1" d="M130.93,114.74a5.39,5.39,0,1,1-5.39-5.45,5.43,5.43,0,0,1,5.39,5.45"/><path class="cls-1" d="M142.94,114.74a5.39,5.39,0,1,1-5.4-5.45,5.43,5.43,0,0,1,5.4,5.45"/><path class="cls-1" d="M22.8,126.56a5.39,5.39,0,1,1-5.39-5.45,5.42,5.42,0,0,1,5.39,5.45"/><path class="cls-1" d="M34.82,126.56a5.39,5.39,0,1,1-5.39-5.45,5.42,5.42,0,0,1,5.39,5.45"/><path class="cls-1" d="M10.79,17.6a5.42,5.42,0,0,1-5.39,5.45,5.45,5.45,0,0,1,0-10.91,5.42,5.42,0,0,1,5.39,5.45"/><path class="cls-1" d="M10.79,29.74A5.42,5.42,0,0,1,5.39,35.2a5.45,5.45,0,0,1,0-10.91,5.42,5.42,0,0,1,5.39,5.45"/><path class="cls-1" d="M10.79,41.88a5.42,5.42,0,0,1-5.39,5.46,5.45,5.45,0,0,1,0-10.91,5.42,5.42,0,0,1,5.39,5.45"/><path class="cls-1" d="M10.79,54a5.42,5.42,0,0,1-5.39,5.46,5.46,5.46,0,0,1,0-10.91A5.43,5.43,0,0,1,10.79,54"/><path class="cls-1" d="M10.79,66.17a5.43,5.43,0,0,1-5.39,5.46,5.46,5.46,0,0,1,0-10.91,5.43,5.43,0,0,1,5.39,5.45"/><path class="cls-1" d="M10.79,102.6a5.42,5.42,0,0,1-5.39,5.45,5.45,5.45,0,0,1,0-10.91,5.42,5.42,0,0,1,5.39,5.45"/><path class="cls-1" d="M10.79,114.74a5.43,5.43,0,0,1-5.39,5.46,5.45,5.45,0,0,1,0-10.91,5.42,5.42,0,0,1,5.39,5.45"/><path class="cls-1" d="M10.79,126.56A5.42,5.42,0,0,1,5.39,132a5.45,5.45,0,0,1,0-10.91,5.42,5.42,0,0,1,5.39,5.45"/><path class="cls-1" d="M46.83,126.56a5.39,5.39,0,1,1-5.39-5.45,5.42,5.42,0,0,1,5.39,5.45"/><path class="cls-1" d="M58.84,126.56a5.39,5.39,0,1,1-5.4-5.45,5.42,5.42,0,0,1,5.4,5.45"/><path class="cls-1" d="M70.86,126.56a5.39,5.39,0,1,1-5.4-5.45,5.42,5.42,0,0,1,5.4,5.45"/><path class="cls-1" d="M82.87,126.56a5.39,5.39,0,1,1-5.4-5.45,5.42,5.42,0,0,1,5.4,5.45"/><path class="cls-1" d="M94.89,126.56a5.39,5.39,0,1,1-5.39-5.45,5.42,5.42,0,0,1,5.39,5.45"/><path class="cls-1" d="M106.9,126.56a5.39,5.39,0,1,1-5.39-5.45,5.42,5.42,0,0,1,5.39,5.45"/><path class="cls-1" d="M118.91,126.56a5.39,5.39,0,1,1-5.39-5.45,5.42,5.42,0,0,1,5.39,5.45"/><path class="cls-1" d="M130.93,126.56a5.39,5.39,0,1,1-5.39-5.45,5.42,5.42,0,0,1,5.39,5.45"/><path class="cls-1" d="M187.46,5.45a5.39,5.39,0,1,1-10.79,0,5.39,5.39,0,1,1,10.79,0"/><path class="cls-1" d="M199.47,5.45a5.39,5.39,0,1,1-10.79,0,5.39,5.39,0,1,1,10.79,0"/><path class="cls-1" d="M211.48,5.45a5.39,5.39,0,1,1-10.79,0,5.39,5.39,0,1,1,10.79,0"/><path class="cls-1" d="M223.5,5.45a5.39,5.39,0,1,1-10.79,0,5.39,5.39,0,1,1,10.79,0"/><path class="cls-1" d="M235.51,5.45a5.39,5.39,0,1,1-10.79,0,5.39,5.39,0,1,1,10.79,0"/><path class="cls-1" d="M247.53,5.45a5.39,5.39,0,1,1-10.79,0,5.39,5.39,0,1,1,10.79,0"/><path class="cls-1" d="M259.54,5.45a5.39,5.39,0,1,1-10.79,0,5.39,5.39,0,1,1,10.79,0"/><path class="cls-1" d="M271.55,5.45a5.39,5.39,0,1,1-10.79,0,5.39,5.39,0,1,1,10.79,0"/><path class="cls-1" d="M283.57,5.45a5.39,5.39,0,1,1-10.79,0,5.39,5.39,0,1,1,10.79,0"/><path class="cls-1" d="M295.58,5.45a5.39,5.39,0,1,1-10.79,0,5.39,5.39,0,1,1,10.79,0"/><path class="cls-1" d="M307.59,5.45a5.39,5.39,0,1,1-10.79,0,5.39,5.39,0,1,1,10.79,0"/><path class="cls-1" d="M187.46,17.6a5.39,5.39,0,1,1-5.39-5.45,5.42,5.42,0,0,1,5.39,5.45"/><path class="cls-1" d="M199.47,17.6a5.39,5.39,0,1,1-5.39-5.45,5.42,5.42,0,0,1,5.39,5.45"/><path class="cls-1" d="M211.48,17.6a5.39,5.39,0,1,1-5.39-5.45,5.42,5.42,0,0,1,5.39,5.45"/><path class="cls-1" d="M223.5,17.6a5.39,5.39,0,1,1-5.39-5.45,5.42,5.42,0,0,1,5.39,5.45"/><path class="cls-1" d="M235.51,17.6a5.39,5.39,0,1,1-5.4-5.45,5.42,5.42,0,0,1,5.4,5.45"/><path class="cls-1" d="M247.53,17.6a5.39,5.39,0,1,1-5.4-5.45,5.42,5.42,0,0,1,5.4,5.45"/><path class="cls-1" d="M259.54,17.6a5.39,5.39,0,1,1-5.4-5.45,5.42,5.42,0,0,1,5.4,5.45"/><path class="cls-1" d="M271.55,17.6a5.39,5.39,0,1,1-5.4-5.45,5.42,5.42,0,0,1,5.4,5.45"/><path class="cls-1" d="M283.57,17.6a5.39,5.39,0,1,1-5.4-5.45,5.42,5.42,0,0,1,5.4,5.45"/><path class="cls-1" d="M295.58,17.6a5.39,5.39,0,1,1-5.4-5.45,5.42,5.42,0,0,1,5.4,5.45"/><path class="cls-1" d="M307.59,17.6a5.39,5.39,0,1,1-5.39-5.45,5.42,5.42,0,0,1,5.39,5.45"/><path class="cls-1" d="M187.46,29.74a5.39,5.39,0,1,1-5.39-5.45,5.42,5.42,0,0,1,5.39,5.45"/><path class="cls-1" d="M199.47,29.74a5.39,5.39,0,1,1-5.39-5.45,5.42,5.42,0,0,1,5.39,5.45"/><path class="cls-1" d="M211.48,29.74a5.39,5.39,0,1,1-5.39-5.45,5.42,5.42,0,0,1,5.39,5.45"/><path class="cls-1" d="M223.5,29.74a5.39,5.39,0,1,1-5.39-5.45,5.42,5.42,0,0,1,5.39,5.45"/><path class="cls-1" d="M235.51,29.74a5.39,5.39,0,1,1-5.4-5.45,5.42,5.42,0,0,1,5.4,5.45"/><path class="cls-1" d="M247.53,29.74a5.39,5.39,0,1,1-5.4-5.45,5.42,5.42,0,0,1,5.4,5.45"/><path class="cls-1" d="M259.54,29.74a5.39,5.39,0,1,1-5.4-5.45,5.42,5.42,0,0,1,5.4,5.45"/><path class="cls-1" d="M271.55,29.74a5.39,5.39,0,1,1-5.4-5.45,5.42,5.42,0,0,1,5.4,5.45"/><path class="cls-1" d="M283.57,29.74a5.39,5.39,0,1,1-5.4-5.45,5.42,5.42,0,0,1,5.4,5.45"/><path class="cls-1" d="M295.58,29.74a5.39,5.39,0,1,1-5.4-5.45,5.42,5.42,0,0,1,5.4,5.45"/><path class="cls-1" d="M307.59,29.74a5.39,5.39,0,1,1-5.39-5.45,5.42,5.42,0,0,1,5.39,5.45"/><path class="cls-1" d="M187.46,41.88a5.39,5.39,0,1,1-5.39-5.45,5.42,5.42,0,0,1,5.39,5.45"/><path class="cls-1" d="M199.47,41.88a5.39,5.39,0,1,1-5.39-5.45,5.42,5.42,0,0,1,5.39,5.45"/><path class="cls-1" d="M211.48,41.88a5.39,5.39,0,1,1-5.39-5.45,5.42,5.42,0,0,1,5.39,5.45"/><path class="cls-1" d="M187.46,54a5.39,5.39,0,1,1-5.39-5.45A5.42,5.42,0,0,1,187.46,54"/><path class="cls-1" d="M199.47,54a5.39,5.39,0,1,1-5.39-5.45A5.42,5.42,0,0,1,199.47,54"/><path class="cls-1" d="M211.48,54a5.39,5.39,0,1,1-5.39-5.45A5.42,5.42,0,0,1,211.48,54"/><path class="cls-1" d="M223.5,54a5.39,5.39,0,1,1-5.39-5.45A5.42,5.42,0,0,1,223.5,54"/><path class="cls-1" d="M235.51,54a5.39,5.39,0,1,1-5.4-5.45,5.42,5.42,0,0,1,5.4,5.45"/><path class="cls-1" d="M247.53,54a5.39,5.39,0,1,1-5.4-5.45,5.42,5.42,0,0,1,5.4,5.45"/><path class="cls-1" d="M259.54,54a5.39,5.39,0,1,1-5.4-5.45,5.42,5.42,0,0,1,5.4,5.45"/><path class="cls-1" d="M271.55,54a5.39,5.39,0,1,1-5.4-5.45,5.42,5.42,0,0,1,5.4,5.45"/><path class="cls-1" d="M283.57,54a5.39,5.39,0,1,1-5.4-5.45,5.42,5.42,0,0,1,5.4,5.45"/><path class="cls-1" d="M295.58,54a5.39,5.39,0,1,1-5.4-5.45,5.42,5.42,0,0,1,5.4,5.45"/><path class="cls-1" d="M187.46,66.17a5.39,5.39,0,1,1-5.39-5.45,5.43,5.43,0,0,1,5.39,5.45"/><path class="cls-1" d="M199.47,66.17a5.39,5.39,0,1,1-5.39-5.45,5.43,5.43,0,0,1,5.39,5.45"/><path class="cls-1" d="M211.48,66.17a5.39,5.39,0,1,1-5.39-5.45,5.43,5.43,0,0,1,5.39,5.45"/><path class="cls-1" d="M223.5,66.17a5.39,5.39,0,1,1-5.39-5.45,5.43,5.43,0,0,1,5.39,5.45"/><path class="cls-1" d="M235.51,66.17a5.39,5.39,0,1,1-5.4-5.45,5.43,5.43,0,0,1,5.4,5.45"/><path class="cls-1" d="M247.53,66.17a5.39,5.39,0,1,1-5.4-5.45,5.43,5.43,0,0,1,5.4,5.45"/><path class="cls-1" d="M259.54,66.17a5.39,5.39,0,1,1-5.4-5.45,5.43,5.43,0,0,1,5.4,5.45"/><path class="cls-1" d="M271.55,66.17a5.39,5.39,0,1,1-5.4-5.45,5.43,5.43,0,0,1,5.4,5.45"/><path class="cls-1" d="M283.57,66.17a5.39,5.39,0,1,1-5.4-5.45,5.43,5.43,0,0,1,5.4,5.45"/><path class="cls-1" d="M295.58,66.17a5.39,5.39,0,1,1-5.4-5.45,5.43,5.43,0,0,1,5.4,5.45"/><path class="cls-1" d="M307.59,66.17a5.39,5.39,0,1,1-5.39-5.45,5.43,5.43,0,0,1,5.39,5.45"/><path class="cls-1" d="M187.46,78.31a5.39,5.39,0,1,1-5.39-5.45,5.43,5.43,0,0,1,5.39,5.45"/><path class="cls-1" d="M199.47,78.31a5.39,5.39,0,1,1-5.39-5.45,5.43,5.43,0,0,1,5.39,5.45"/><path class="cls-1" d="M211.48,78.31a5.39,5.39,0,1,1-5.39-5.45,5.43,5.43,0,0,1,5.39,5.45"/><path class="cls-1" d="M223.5,78.31a5.39,5.39,0,1,1-5.39-5.45,5.43,5.43,0,0,1,5.39,5.45"/><path class="cls-1" d="M235.51,78.31a5.39,5.39,0,1,1-5.4-5.45,5.43,5.43,0,0,1,5.4,5.45"/><path class="cls-1" d="M247.53,78.31a5.39,5.39,0,1,1-5.4-5.45,5.43,5.43,0,0,1,5.4,5.45"/><path class="cls-1" d="M259.54,78.31a5.39,5.39,0,1,1-5.4-5.45,5.43,5.43,0,0,1,5.4,5.45"/><path class="cls-1" d="M271.55,78.31a5.39,5.39,0,1,1-5.4-5.45,5.43,5.43,0,0,1,5.4,5.45"/><path class="cls-1" d="M283.57,78.31a5.39,5.39,0,1,1-5.4-5.45,5.43,5.43,0,0,1,5.4,5.45"/><path class="cls-1" d="M295.58,78.31a5.39,5.39,0,1,1-5.4-5.45,5.43,5.43,0,0,1,5.4,5.45"/><path class="cls-1" d="M307.59,78.31a5.39,5.39,0,1,1-5.39-5.45,5.43,5.43,0,0,1,5.39,5.45"/><path class="cls-1" d="M271.55,90.46a5.39,5.39,0,1,1-5.4-5.45,5.42,5.42,0,0,1,5.4,5.45"/><path class="cls-1" d="M283.57,90.46a5.39,5.39,0,1,1-5.4-5.45,5.42,5.42,0,0,1,5.4,5.45"/><path class="cls-1" d="M295.58,90.46a5.39,5.39,0,1,1-5.4-5.45,5.42,5.42,0,0,1,5.4,5.45"/><path class="cls-1" d="M307.59,90.46A5.39,5.39,0,1,1,302.2,85a5.42,5.42,0,0,1,5.39,5.45"/><path class="cls-1" d="M187.46,102.6a5.39,5.39,0,1,1-5.39-5.45,5.42,5.42,0,0,1,5.39,5.45"/><path class="cls-1" d="M199.47,102.6a5.39,5.39,0,1,1-5.39-5.45,5.42,5.42,0,0,1,5.39,5.45"/><path class="cls-1" d="M211.48,102.6a5.39,5.39,0,1,1-5.39-5.45,5.42,5.42,0,0,1,5.39,5.45"/><path class="cls-1" d="M223.5,102.6a5.39,5.39,0,1,1-5.39-5.45,5.42,5.42,0,0,1,5.39,5.45"/><path class="cls-1" d="M235.51,102.6a5.39,5.39,0,1,1-5.4-5.45,5.42,5.42,0,0,1,5.4,5.45"/><path class="cls-1" d="M247.53,102.6a5.39,5.39,0,1,1-5.4-5.45,5.42,5.42,0,0,1,5.4,5.45"/><path class="cls-1" d="M259.54,102.6a5.39,5.39,0,1,1-5.4-5.45,5.42,5.42,0,0,1,5.4,5.45"/><path class="cls-1" d="M271.55,102.6a5.39,5.39,0,1,1-5.4-5.45,5.42,5.42,0,0,1,5.4,5.45"/><path class="cls-1" d="M283.57,102.6a5.39,5.39,0,1,1-5.4-5.45,5.42,5.42,0,0,1,5.4,5.45"/><path class="cls-1" d="M295.58,102.6a5.39,5.39,0,1,1-5.4-5.45,5.42,5.42,0,0,1,5.4,5.45"/><path class="cls-1" d="M307.59,102.6a5.39,5.39,0,1,1-5.39-5.45,5.42,5.42,0,0,1,5.39,5.45"/><path class="cls-1" d="M187.46,114.74a5.39,5.39,0,1,1-5.39-5.45,5.43,5.43,0,0,1,5.39,5.45"/><path class="cls-1" d="M199.47,114.74a5.39,5.39,0,1,1-5.39-5.45,5.43,5.43,0,0,1,5.39,5.45"/><path class="cls-1" d="M211.48,114.74a5.39,5.39,0,1,1-5.39-5.45,5.43,5.43,0,0,1,5.39,5.45"/><path class="cls-1" d="M223.5,114.74a5.39,5.39,0,1,1-5.39-5.45,5.43,5.43,0,0,1,5.39,5.45"/><path class="cls-1" d="M235.51,114.74a5.39,5.39,0,1,1-5.4-5.45,5.43,5.43,0,0,1,5.4,5.45"/><path class="cls-1" d="M247.53,114.74a5.39,5.39,0,1,1-5.4-5.45,5.43,5.43,0,0,1,5.4,5.45"/><path class="cls-1" d="M259.54,114.74a5.39,5.39,0,1,1-5.4-5.45,5.43,5.43,0,0,1,5.4,5.45"/><path class="cls-1" d="M271.55,114.74a5.39,5.39,0,1,1-5.4-5.45,5.43,5.43,0,0,1,5.4,5.45"/><path class="cls-1" d="M283.57,114.74a5.39,5.39,0,1,1-5.4-5.45,5.43,5.43,0,0,1,5.4,5.45"/><path class="cls-1" d="M295.58,114.74a5.39,5.39,0,1,1-5.4-5.45,5.43,5.43,0,0,1,5.4,5.45"/><path class="cls-1" d="M307.59,114.74a5.39,5.39,0,1,1-5.39-5.45,5.43,5.43,0,0,1,5.39,5.45"/><path class="cls-1" d="M187.46,126.56a5.39,5.39,0,1,1-5.39-5.45,5.42,5.42,0,0,1,5.39,5.45"/><path class="cls-1" d="M199.47,126.56a5.39,5.39,0,1,1-5.39-5.45,5.42,5.42,0,0,1,5.39,5.45"/><path class="cls-1" d="M175.44,17.6a5.39,5.39,0,1,1-5.4-5.45,5.42,5.42,0,0,1,5.4,5.45"/><path class="cls-1" d="M175.44,29.74a5.39,5.39,0,1,1-5.4-5.45,5.42,5.42,0,0,1,5.4,5.45"/><path class="cls-1" d="M175.44,41.88a5.39,5.39,0,1,1-5.4-5.45,5.42,5.42,0,0,1,5.4,5.45"/><path class="cls-1" d="M175.44,54a5.39,5.39,0,1,1-5.4-5.45,5.42,5.42,0,0,1,5.4,5.45"/><path class="cls-1" d="M175.44,66.17a5.39,5.39,0,1,1-5.4-5.45,5.43,5.43,0,0,1,5.4,5.45"/><path class="cls-1" d="M175.44,102.6a5.39,5.39,0,1,1-5.4-5.45,5.42,5.42,0,0,1,5.4,5.45"/><path class="cls-1" d="M175.44,114.74a5.39,5.39,0,1,1-5.4-5.45,5.43,5.43,0,0,1,5.4,5.45"/><path class="cls-1" d="M175.44,126.56a5.39,5.39,0,1,1-5.4-5.45,5.42,5.42,0,0,1,5.4,5.45"/><path class="cls-1" d="M211.48,126.56a5.39,5.39,0,1,1-5.39-5.45,5.42,5.42,0,0,1,5.39,5.45"/><path class="cls-1" d="M223.5,126.56a5.39,5.39,0,1,1-5.39-5.45,5.42,5.42,0,0,1,5.39,5.45"/><path class="cls-1" d="M235.51,126.56a5.39,5.39,0,1,1-5.4-5.45,5.42,5.42,0,0,1,5.4,5.45"/><path class="cls-1" d="M247.53,126.56a5.39,5.39,0,1,1-5.4-5.45,5.42,5.42,0,0,1,5.4,5.45"/><path class="cls-1" d="M259.54,126.56a5.39,5.39,0,1,1-5.4-5.45,5.42,5.42,0,0,1,5.4,5.45"/><path class="cls-1" d="M271.55,126.56a5.39,5.39,0,1,1-5.4-5.45,5.42,5.42,0,0,1,5.4,5.45"/><path class="cls-1" d="M283.57,126.56a5.39,5.39,0,1,1-5.4-5.45,5.42,5.42,0,0,1,5.4,5.45"/><path class="cls-1" d="M295.58,126.56a5.39,5.39,0,1,1-5.4-5.45,5.42,5.42,0,0,1,5.4,5.45"/><path class="cls-1" d="M352.55,5.45a5.39,5.39,0,1,1-10.79,0,5.39,5.39,0,1,1,10.79,0"/><path class="cls-1" d="M364.57,5.45a5.39,5.39,0,1,1-10.79,0,5.39,5.39,0,1,1,10.79,0"/><path class="cls-1" d="M376.58,5.45a5.39,5.39,0,1,1-10.79,0,5.39,5.39,0,1,1,10.79,0"/><path class="cls-1" d="M388.59,5.45a5.39,5.39,0,1,1-10.79,0,5.39,5.39,0,1,1,10.79,0"/><path class="cls-1" d="M400.61,5.45a5.39,5.39,0,1,1-10.79,0,5.39,5.39,0,1,1,10.79,0"/><path class="cls-1" d="M412.62,5.45a5.39,5.39,0,1,1-10.79,0,5.39,5.39,0,1,1,10.79,0"/><path class="cls-1" d="M424.64,5.45a5.39,5.39,0,1,1-10.79,0,5.39,5.39,0,1,1,10.79,0"/><path class="cls-1" d="M436.65,5.45a5.39,5.39,0,1,1-10.79,0,5.39,5.39,0,1,1,10.79,0"/><path class="cls-1" d="M448.66,5.45a5.39,5.39,0,1,1-10.79,0,5.39,5.39,0,1,1,10.79,0"/><path class="cls-1" d="M460.68,5.45a5.39,5.39,0,1,1-10.79,0,5.39,5.39,0,1,1,10.79,0"/><path class="cls-1" d="M472.69,5.45a5.39,5.39,0,1,1-10.79,0,5.39,5.39,0,1,1,10.79,0"/><path class="cls-1" d="M352.55,17.6a5.39,5.39,0,1,1-5.4-5.45,5.42,5.42,0,0,1,5.4,5.45"/><path class="cls-1" d="M364.57,17.6a5.39,5.39,0,1,1-5.4-5.45,5.42,5.42,0,0,1,5.4,5.45"/><path class="cls-1" d="M376.58,17.6a5.39,5.39,0,1,1-5.4-5.45,5.42,5.42,0,0,1,5.4,5.45"/><path class="cls-1" d="M388.59,17.6a5.39,5.39,0,1,1-5.4-5.45,5.42,5.42,0,0,1,5.4,5.45"/><path class="cls-1" d="M400.61,17.6a5.39,5.39,0,1,1-5.4-5.45,5.42,5.42,0,0,1,5.4,5.45"/><path class="cls-1" d="M412.62,17.6a5.39,5.39,0,1,1-5.4-5.45,5.42,5.42,0,0,1,5.4,5.45"/><path class="cls-1" d="M424.64,17.6a5.39,5.39,0,1,1-5.4-5.45,5.42,5.42,0,0,1,5.4,5.45"/><path class="cls-1" d="M436.65,17.6a5.39,5.39,0,1,1-5.39-5.45,5.42,5.42,0,0,1,5.39,5.45"/><path class="cls-1" d="M448.66,17.6a5.39,5.39,0,1,1-5.39-5.45,5.42,5.42,0,0,1,5.39,5.45"/><path class="cls-1" d="M460.68,17.6a5.39,5.39,0,1,1-5.39-5.45,5.42,5.42,0,0,1,5.39,5.45"/><path class="cls-1" d="M472.69,17.6a5.39,5.39,0,1,1-5.39-5.45,5.42,5.42,0,0,1,5.39,5.45"/><path class="cls-1" d="M352.55,29.74a5.39,5.39,0,1,1-5.4-5.45,5.42,5.42,0,0,1,5.4,5.45"/><path class="cls-1" d="M364.57,29.74a5.39,5.39,0,1,1-5.4-5.45,5.42,5.42,0,0,1,5.4,5.45"/><path class="cls-1" d="M376.58,29.74a5.39,5.39,0,1,1-5.4-5.45,5.42,5.42,0,0,1,5.4,5.45"/><path class="cls-1" d="M388.59,29.74a5.39,5.39,0,1,1-5.4-5.45,5.42,5.42,0,0,1,5.4,5.45"/><path class="cls-1" d="M400.61,29.74a5.39,5.39,0,1,1-5.4-5.45,5.42,5.42,0,0,1,5.4,5.45"/><path class="cls-1" d="M412.62,29.74a5.39,5.39,0,1,1-5.4-5.45,5.42,5.42,0,0,1,5.4,5.45"/><path class="cls-1" d="M424.64,29.74a5.39,5.39,0,1,1-5.4-5.45,5.42,5.42,0,0,1,5.4,5.45"/><path class="cls-1" d="M436.65,29.74a5.39,5.39,0,1,1-5.39-5.45,5.42,5.42,0,0,1,5.39,5.45"/><path class="cls-1" d="M448.66,29.74a5.39,5.39,0,1,1-5.39-5.45,5.42,5.42,0,0,1,5.39,5.45"/><path class="cls-1" d="M460.68,29.74a5.39,5.39,0,1,1-5.39-5.45,5.42,5.42,0,0,1,5.39,5.45"/><path class="cls-1" d="M472.69,29.74a5.39,5.39,0,1,1-5.39-5.45,5.42,5.42,0,0,1,5.39,5.45"/><path class="cls-1" d="M352.55,41.88a5.39,5.39,0,1,1-5.4-5.45,5.42,5.42,0,0,1,5.4,5.45"/><path class="cls-1" d="M364.57,41.88a5.39,5.39,0,1,1-5.4-5.45,5.42,5.42,0,0,1,5.4,5.45"/><path class="cls-1" d="M352.55,54a5.39,5.39,0,1,1-5.4-5.45,5.42,5.42,0,0,1,5.4,5.45"/><path class="cls-1" d="M364.57,54a5.39,5.39,0,1,1-5.4-5.45,5.42,5.42,0,0,1,5.4,5.45"/><path class="cls-1" d="M352.55,66.17a5.39,5.39,0,1,1-5.4-5.45,5.43,5.43,0,0,1,5.4,5.45"/><path class="cls-1" d="M364.57,66.17a5.39,5.39,0,1,1-5.4-5.45,5.43,5.43,0,0,1,5.4,5.45"/><path class="cls-1" d="M352.55,78.31a5.39,5.39,0,1,1-5.4-5.45,5.43,5.43,0,0,1,5.4,5.45"/><path class="cls-1" d="M364.57,78.31a5.39,5.39,0,1,1-5.4-5.45,5.43,5.43,0,0,1,5.4,5.45"/><path class="cls-1" d="M352.55,90.46a5.39,5.39,0,1,1-5.4-5.45,5.42,5.42,0,0,1,5.4,5.45"/><path class="cls-1" d="M364.57,90.46a5.39,5.39,0,1,1-5.4-5.45,5.42,5.42,0,0,1,5.4,5.45"/><path class="cls-1" d="M352.55,102.6a5.39,5.39,0,1,1-5.4-5.45,5.42,5.42,0,0,1,5.4,5.45"/><path class="cls-1" d="M364.57,102.6a5.39,5.39,0,1,1-5.4-5.45,5.42,5.42,0,0,1,5.4,5.45"/><path class="cls-1" d="M376.58,102.6a5.39,5.39,0,1,1-5.4-5.45,5.42,5.42,0,0,1,5.4,5.45"/><path class="cls-1" d="M388.59,102.6a5.39,5.39,0,1,1-5.4-5.45,5.42,5.42,0,0,1,5.4,5.45"/><path class="cls-1" d="M400.61,102.6a5.39,5.39,0,1,1-5.4-5.45,5.42,5.42,0,0,1,5.4,5.45"/><path class="cls-1" d="M412.62,102.6a5.39,5.39,0,1,1-5.4-5.45,5.42,5.42,0,0,1,5.4,5.45"/><path class="cls-1" d="M424.64,102.6a5.39,5.39,0,1,1-5.4-5.45,5.42,5.42,0,0,1,5.4,5.45"/><path class="cls-1" d="M436.65,102.6a5.39,5.39,0,1,1-5.39-5.45,5.42,5.42,0,0,1,5.39,5.45"/><path class="cls-1" d="M448.66,102.6a5.39,5.39,0,1,1-5.39-5.45,5.42,5.42,0,0,1,5.39,5.45"/><path class="cls-1" d="M460.68,102.6a5.39,5.39,0,1,1-5.39-5.45,5.42,5.42,0,0,1,5.39,5.45"/><path class="cls-1" d="M472.69,102.6a5.39,5.39,0,1,1-5.39-5.45,5.42,5.42,0,0,1,5.39,5.45"/><path class="cls-1" d="M352.55,114.74a5.39,5.39,0,1,1-5.4-5.45,5.43,5.43,0,0,1,5.4,5.45"/><path class="cls-1" d="M364.57,114.74a5.39,5.39,0,1,1-5.4-5.45,5.43,5.43,0,0,1,5.4,5.45"/><path class="cls-1" d="M376.58,114.74a5.39,5.39,0,1,1-5.4-5.45,5.43,5.43,0,0,1,5.4,5.45"/><path class="cls-1" d="M388.59,114.74a5.39,5.39,0,1,1-5.4-5.45,5.43,5.43,0,0,1,5.4,5.45"/><path class="cls-1" d="M400.61,114.74a5.39,5.39,0,1,1-5.4-5.45,5.43,5.43,0,0,1,5.4,5.45"/><path class="cls-1" d="M412.62,114.74a5.39,5.39,0,1,1-5.4-5.45,5.43,5.43,0,0,1,5.4,5.45"/><path class="cls-1" d="M424.64,114.74a5.39,5.39,0,1,1-5.4-5.45,5.43,5.43,0,0,1,5.4,5.45"/><path class="cls-1" d="M436.65,114.74a5.39,5.39,0,1,1-5.39-5.45,5.43,5.43,0,0,1,5.39,5.45"/><path class="cls-1" d="M448.66,114.74a5.39,5.39,0,1,1-5.39-5.45,5.43,5.43,0,0,1,5.39,5.45"/><path class="cls-1" d="M460.68,114.74a5.39,5.39,0,1,1-5.39-5.45,5.43,5.43,0,0,1,5.39,5.45"/><path class="cls-1" d="M472.69,114.74a5.39,5.39,0,1,1-5.39-5.45,5.43,5.43,0,0,1,5.39,5.45"/><path class="cls-1" d="M352.55,126.56a5.39,5.39,0,1,1-5.4-5.45,5.42,5.42,0,0,1,5.4,5.45"/><path class="cls-1" d="M364.57,126.56a5.39,5.39,0,1,1-5.4-5.45,5.42,5.42,0,0,1,5.4,5.45"/><path class="cls-1" d="M340.54,17.6a5.39,5.39,0,1,1-5.4-5.45,5.42,5.42,0,0,1,5.4,5.45"/><path class="cls-1" d="M340.54,29.74a5.39,5.39,0,1,1-5.4-5.45,5.42,5.42,0,0,1,5.4,5.45"/><path class="cls-1" d="M340.54,41.88a5.39,5.39,0,1,1-5.4-5.45,5.42,5.42,0,0,1,5.4,5.45"/><path class="cls-1" d="M340.54,54a5.39,5.39,0,1,1-5.4-5.45,5.42,5.42,0,0,1,5.4,5.45"/><path class="cls-1" d="M340.54,66.17a5.39,5.39,0,1,1-5.4-5.45,5.43,5.43,0,0,1,5.4,5.45"/><path class="cls-1" d="M340.54,78.31a5.39,5.39,0,1,1-5.4-5.45,5.43,5.43,0,0,1,5.4,5.45"/><path class="cls-1" d="M340.54,90.46a5.39,5.39,0,1,1-5.4-5.45,5.42,5.42,0,0,1,5.4,5.45"/><path class="cls-1" d="M340.54,102.6a5.39,5.39,0,1,1-5.4-5.45,5.42,5.42,0,0,1,5.4,5.45"/><path class="cls-1" d="M340.54,114.74a5.39,5.39,0,1,1-5.4-5.45,5.43,5.43,0,0,1,5.4,5.45"/><path class="cls-1" d="M376.58,126.56a5.39,5.39,0,1,1-5.4-5.45,5.42,5.42,0,0,1,5.4,5.45"/><path class="cls-1" d="M388.59,126.56a5.39,5.39,0,1,1-5.4-5.45,5.42,5.42,0,0,1,5.4,5.45"/><path class="cls-1" d="M400.61,126.56a5.39,5.39,0,1,1-5.4-5.45,5.42,5.42,0,0,1,5.4,5.45"/><path class="cls-1" d="M412.62,126.56a5.39,5.39,0,1,1-5.4-5.45,5.42,5.42,0,0,1,5.4,5.45"/><path class="cls-1" d="M424.64,126.56a5.39,5.39,0,1,1-5.4-5.45,5.42,5.42,0,0,1,5.4,5.45"/><path class="cls-1" d="M436.65,126.56a5.39,5.39,0,1,1-5.39-5.45,5.42,5.42,0,0,1,5.39,5.45"/><path class="cls-1" d="M448.66,126.56a5.39,5.39,0,1,1-5.39-5.45,5.42,5.42,0,0,1,5.39,5.45"/><path class="cls-1" d="M460.68,126.56a5.39,5.39,0,1,1-5.39-5.45,5.42,5.42,0,0,1,5.39,5.45"/><path class="cls-1" d="M472.69,126.56a5.39,5.39,0,1,1-5.39-5.45,5.42,5.42,0,0,1,5.39,5.45"/></g></g></svg>