<svg xmlns="http://www.w3.org/2000/svg" width="696.7" height="312.78" viewBox="0 0 696.7 312.78">
  <defs>
    <style>
      .cls-1 {
        fill: #fff;
      }

      .cls-1, .cls-2, .cls-3 {
        fill-rule: evenodd;
      }

      .cls-2 {
        fill: #e03459;
      }

      .cls-3 {
        fill: #42b3aa;
      }
    </style>
  </defs>
  <path id="تیم_ما_copy_3" data-name="تیم ما copy 3" class="cls-1" d="M15579.6,1713.98V1608.29h-46.1v105.69h46.1Zm23.3,111.46c24.5-.87,36.9-19.3,41.2-33.12l8.4-25.64c5.2-14.11,16.4-21.88,35.7-23.32v-56.45c-31.1,3.74-47.2,31.68-54.7,45.22l-5.5,9.79c-8.9,15.84-14.7,19.58-25.1,20.16v63.36Zm111.8-65.09c-2.9,1.73-10.4,2.88-27.4,2.88-11.5,0-19.8-1.15-25-2.59,0,0-2.3,1.73-4.6,8.35l-8.4,25.63c-2.3,6.62-5.2,12.67-5.2,12.67,8.7,13.25,23.4,19.3,43.5,19.3,42.9,0,64.5-24.77,65.4-66.24h-38.3Zm314.2,1.73c-8.9-.87-13.6-5.19-18.5-13.83l-8.6-15.26c-10.4-18.14-23.6-46.66-58.5-46.66h-3.7v57.03c17.9,0.86,27.7,10.08,35.4,27.93l9.2,21.31c7.2,16.71,18.5,31.68,44.7,32.84v-63.36Zm-159.3,158.97-0.3-99.65c0-3.74,5.2-4.89,19.6-8.06-11.2-11.81-17.6-29.37-17-55.3-5.2,1.45-10.9,3.17-16.4,5.19-18.7,7.2-29.1,28.8-29.1,56.16v101.66h43.2Zm194.1-179.13c-1.7,15.55-10.1,19.58-29.1,20.16v63.36c28.3-.58,44.4-11.81,50.2-34.28,5.7,22.76,21.6,33.7,49.2,34.28v-63.36c-17.6-.58-25.1-4.9-26.5-20.16h-43.8Zm101.1,0.29c-2.6,12.95-10.1,19.29-25,19.87v63.36c41.7-1.73,66.5-36,67.3-83.23h-42.3Z" transform="translate(-15533.5 -1608.28)"/>
  <path id="تیم_ما_copy" data-name="تیم ما copy" class="cls-2" d="M15753,1754.59c-1.2-42.05-24.8-68.26-57.6-68.26h-1.5v57.03c13.3,0.86,19.9,5.47,21.9,11.23h37.2Zm181.4,72c24.5,0,39.5-11.23,47.5-25.92-11.8-26.5-14.1-34.56-18.1-38.88-5.2,1.15-14.7,1.73-29.1,1.73-18.4,0-25.3-1.15-25.3-5.19,0-7.77,11.5-14.11,24.4-14.97V1687.2c-30.8,4.9-56.4,32.83-56.4,76.32C15877.4,1794.33,15892.7,1826.59,15934.4,1826.59Zm129.6-122.11v31.96h43.2v-31.96H16064Zm-0.6,177.11,17.9-17.85v-9.79l-17.9-17.57-21.8,22.46Zm23.4-17.85,17.5,17.85,21.9-22.75-21.9-22.46-17.5,17.57v9.79Zm93.3-204.48v-10.94l-19.9-19.58-24.5,25.05,24.5,25.34Zm50.1-5.47-24.5-25.05-19.9,19.58v10.94l19.9,19.87Zm-69.1,40.61c2.8,13.53,4.6,25.63,4.6,36.29a35.13,35.13,0,0,1-.3,5.75h41.7a257.055,257.055,0,0,0-4.6-42.04h-41.4Z" transform="translate(-15533.5 -1608.28)"/>
  <path id="تیم_ما_copy_2" data-name="تیم ما copy 2" class="cls-3" d="M15597.2,1762.08c-18.7-1.44-17.6-14.11-17.6-25.92v-16.42h-46.1v29.09c0,46.37,17,75.45,63.7,76.61v-63.36Zm466.8-57.6v31.96h43.2v-31.96H16064Zm116.1-45.22v-10.94l-19.9-19.58-24.5,25.05,24.5,25.34Zm50.1-5.47-24.5-25.05-19.9,19.58v10.94l19.9,19.87Zm-69.1,40.61c2.8,13.53,4.6,25.63,4.6,36.29a35.13,35.13,0,0,1-.3,5.75h41.7a257.055,257.055,0,0,0-4.6-42.04h-41.4Z" transform="translate(-15533.5 -1608.28)"/>
</svg>
